<?xml version="1.0" standalone="no"?>
<!DOCTYPE svg PUBLIC "-//W3C//DTD SVG 20010904//EN"
 "http://www.w3.org/TR/2001/REC-SVG-20010904/DTD/svg10.dtd">
<svg version="1.0" xmlns="http://www.w3.org/2000/svg"
 width="512.000000pt" height="512.000000pt" viewBox="0 0 512.000000 512.000000"
 preserveAspectRatio="xMidYMid meet">
<metadata>
Created by potrace 1.16, written by Peter Selinger 2001-2019
</metadata>
<g transform="translate(0.000000,512.000000) scale(0.100000,-0.100000)"
fill="#d8c2bf" stroke="none">
<path d="M2340 5079 c-396 -41 -819 -195 -1162 -422 -517 -343 -875 -822
-1052 -1409 -73 -242 -108 -484 -108 -748 1 -555 179 -1051 532 -1476 391
-470 854 -774 1387 -909 423 -107 860 -109 1278 -6 341 84 657 237 948 458
141 108 385 353 490 494 87 117 195 287 247 390 77 152 168 411 205 587 22
105 22 979 0 1074 -81 349 -254 706 -488 1008 -98 125 -310 340 -427 434 -365
290 -792 464 -1280 521 -135 16 -430 18 -570 4z m497 -194 c367 -49 693 -167
973 -353 560 -372 908 -975 980 -1701 35 -355 -21 -774 -146 -1093 -246 -628
-720 -1077 -1354 -1284 -227 -75 -328 -92 -406 -69 -100 29 -154 103 -154 211
0 58 -25 134 -60 182 -57 79 -145 131 -363 213 -172 65 -271 119 -357 194
-250 221 -322 490 -215 812 41 121 159 367 263 548 38 66 119 208 181 315 196
339 307 590 342 770 16 85 17 296 1 312 -9 9 -12 5 -12 -17 0 -51 -46 -236
-85 -340 -72 -195 -159 -352 -486 -880 -318 -513 -430 -804 -430 -1121 0 -368
175 -615 553 -781 223 -98 338 -211 338 -334 0 -104 -157 -317 -257 -350 -102
-33 -350 33 -618 166 -264 131 -479 288 -705 515 -226 226 -338 376 -454 608
-106 211 -169 421 -207 680 -19 127 -21 176 -16 362 10 422 109 784 320 1173
257 476 702 890 1177 1094 186 81 469 156 660 176 102 11 429 6 537 -8z"/>
<path d="M2421 4613 c-58 -30 -76 -65 -76 -142 0 -96 37 -144 119 -158 48 -8
112 21 132 58 19 38 18 47 -8 51 -16 2 -28 -5 -40 -24 -32 -51 -106 -50 -133
2 -8 16 -15 52 -15 80 0 41 5 56 25 75 30 31 75 33 100 5 20 -22 60 -27 71 -9
3 6 -7 25 -24 41 -38 39 -101 47 -151 21z"/>
<path d="M2856 4582 c-3 -15 -8 -45 -12 -67 -3 -22 -13 -75 -21 -119 -13 -66
-13 -80 -2 -87 29 -19 44 -4 52 49 l9 53 64 -6 c50 -6 69 -4 88 8 33 22 51 80
37 115 -15 36 -35 47 -107 61 -32 7 -69 14 -81 16 -17 4 -23 -1 -27 -23z m122
-43 c33 -11 46 -32 37 -60 -8 -23 -44 -33 -90 -25 -32 6 -34 9 -29 39 11 63
19 68 82 46z"/>
<path d="M2100 4571 c-23 -6 -26 -15 -42 -106 -31 -179 -38 -219 -35 -221 1
-1 14 0 29 3 22 4 28 12 33 43 6 37 9 39 56 49 71 15 76 14 100 -19 18 -24 27
-28 48 -23 14 3 27 7 29 8 3 3 -177 264 -186 268 -4 2 -18 1 -32 -2z m58 -121
c17 -27 28 -51 24 -53 -4 -3 -25 -8 -46 -11 l-39 -7 6 38 c4 21 7 48 7 61 0
34 14 26 48 -28z"/>
<path d="M3144 4400 c-54 -65 -100 -123 -102 -128 -1 -5 9 -13 23 -16 21 -5
31 -1 51 23 l25 30 62 -22 c60 -21 62 -23 65 -59 3 -31 8 -39 28 -44 14 -4 26
-5 28 -3 5 6 -18 317 -24 322 -3 2 -17 7 -31 10 -23 6 -35 -5 -125 -113z m116
-21 c0 -52 -2 -60 -16 -55 -9 3 -27 9 -40 12 -13 3 -24 10 -24 16 0 13 61 88
72 88 4 0 8 -27 8 -61z"/>
<path d="M1838 4488 c-14 -12 -10 -27 37 -146 30 -74 55 -136 57 -138 2 -2 14
-1 27 3 28 7 27 12 -36 173 -26 66 -52 120 -58 120 -6 0 -18 -6 -27 -12z"/>
<path d="M1615 4396 c-16 -7 -43 -28 -60 -45 -26 -28 -30 -40 -30 -90 0 -48 5
-64 29 -95 32 -42 81 -76 111 -76 43 0 98 23 135 56 53 48 56 65 24 123 l-28
49 -58 -29 c-52 -26 -57 -32 -48 -49 10 -19 12 -19 41 -4 29 14 32 14 44 -3 9
-12 10 -23 3 -36 -12 -24 -67 -57 -94 -57 -46 0 -105 72 -106 129 -2 60 70
109 120 82 16 -8 25 -7 42 7 20 16 21 19 6 31 -23 20 -96 24 -131 7z"/>
<path d="M3534 4370 c-106 -23 -164 -171 -97 -251 34 -40 96 -68 150 -69 40 0
42 2 71 55 l30 56 -58 29 c-57 29 -60 29 -70 11 -8 -17 -5 -23 20 -38 34 -20
36 -26 14 -47 -29 -29 -110 7 -128 57 -11 30 5 75 42 118 18 23 32 29 62 29
45 0 90 -32 90 -65 0 -20 21 -34 53 -35 18 0 5 61 -19 89 -43 51 -101 73 -160
61z"/>
<path d="M1226 4141 c-16 -17 -13 -22 50 -90 37 -39 65 -74 62 -76 -2 -2 -51
9 -107 25 -122 35 -123 35 -144 12 -16 -17 -11 -24 86 -127 97 -102 104 -107
124 -95 21 14 21 15 -44 87 -36 41 -64 75 -62 77 2 2 49 -9 104 -25 119 -34
127 -35 143 -8 12 18 4 29 -89 130 -56 60 -103 109 -104 109 -1 0 -9 -8 -19
-19z"/>
<path d="M3815 4148 c-32 -17 -76 -61 -91 -90 -8 -15 -14 -47 -14 -72 0 -38 6
-52 35 -85 47 -52 106 -69 161 -46 98 41 142 141 99 225 -33 64 -133 100 -190
68z m112 -58 c57 -35 57 -93 -2 -153 -29 -30 -43 -37 -75 -37 -30 0 -43 6 -64
31 -14 17 -26 40 -26 51 0 46 76 127 120 128 8 0 30 -9 47 -20z"/>
<path d="M4029 3839 c-63 -50 -115 -92 -117 -94 -2 -2 28 -36 66 -75 l70 -73
47 5 c96 11 182 107 165 183 -8 33 -92 145 -110 145 -4 0 -59 -41 -121 -91z
m155 -12 c45 -59 30 -106 -50 -153 -55 -32 -83 -27 -120 21 -15 20 -25 37 -23
39 27 25 156 126 161 126 4 0 18 -15 32 -33z"/>
<path d="M926 3830 c-37 -45 -66 -85 -64 -89 3 -8 119 -104 199 -164 l35 -27
74 91 c58 71 70 93 59 100 -24 15 -32 10 -82 -52 -26 -32 -51 -59 -55 -59 -4
1 -20 12 -37 25 -33 28 -34 24 30 100 37 45 38 48 20 61 -17 13 -22 10 -49
-23 -17 -21 -40 -48 -51 -60 l-20 -23 -29 23 -29 24 51 63 c39 49 49 67 40 77
-6 7 -14 13 -18 13 -4 0 -37 -36 -74 -80z"/>
<path d="M2605 3610 c38 -331 85 -442 404 -970 142 -235 236 -445 287 -645 25
-95 29 -129 28 -250 0 -160 -13 -228 -70 -343 -60 -123 -139 -210 -309 -339
-131 -100 -172 -155 -191 -257 l-7 -40 49 41 c27 22 111 76 186 118 113 64
151 92 220 161 98 99 163 192 207 297 51 124 64 209 58 382 -4 132 -9 165 -40
275 -82 291 -178 484 -433 872 -218 332 -308 501 -360 673 -24 82 -37 92 -29
25z"/>
<path d="M777 3616 l-16 -24 136 -77 c74 -42 136 -75 138 -73 1 2 7 13 14 25
10 20 4 25 -85 77 -52 31 -98 56 -102 56 -4 0 -18 9 -32 20 -32 25 -35 25 -53
-4z"/>
<path d="M4235 3539 c-77 -9 -141 -18 -143 -18 -1 -1 5 -13 14 -27 15 -22 22
-24 55 -19 l38 7 30 -60 30 -59 -25 -25 c-22 -22 -24 -27 -13 -52 7 -14 16
-25 19 -24 4 2 53 56 110 121 100 115 102 118 90 147 -15 35 -7 35 -205 9z
m135 -47 c0 -4 -18 -25 -39 -46 l-40 -39 -20 34 c-27 44 -27 47 12 52 60 7 87
7 87 -1z"/>
<path d="M716 3512 c-9 -17 -12 -32 -7 -34 5 -2 46 -39 92 -82 l84 -79 -75 7
c-41 3 -98 9 -125 12 -48 6 -51 5 -63 -20 -7 -15 -12 -28 -12 -30 0 -1 73 -9
162 -16 153 -12 162 -12 175 5 7 11 13 24 13 30 0 5 -51 61 -114 124 l-114
114 -16 -31z"/>
</g>
</svg>
